<?xml version="1.0" standalone="no"?>
<!DOCTYPE svg PUBLIC "-//W3C//DTD SVG 1.1//EN" "http://www.w3.org/Graphics/SVG/1.1/DTD/svg11.dtd">
<svg width="512" height="512" viewBox="0 0 512 512">
    <path d="m194 78c-26 29-19 74-19 74 0 0 27 32 80 32 53 0 80-32 80-32 0 0 7-45-19-73 17-9 26-22 22-31-4-10-24-11-44-2-7 3-14 7-18 12-7-1-13-2-21-2-7 0-13 1-19 2-5-5-11-9-18-12-20-9-40-8-44 2-4 9 5 21 20 30z m201 207c-4-1-8-1-12-2 0-1 0-2 0-3 0-17-2-33-6-48 8 1 19-1 29-6 20-9 33-24 28-34-4-10-24-11-44-2-9 4-17 10-22 15-4-9-8-18-13-25-15 12-44 31-84 35l0 161c0 0 0 16-16 16-16 0-16-16-16-16l0-161c-40-4-68-23-83-35-5 7-9 16-13 24-5-5-13-10-21-14-20-9-40-8-44 2-5 10 8 25 28 34 10 4 19 6 27 6-3 15-6 31-6 48 0 1 0 2 0 3-3 1-6 1-10 2-26 5-46 19-44 30 1 11 23 16 49 10 4-1 7-1 10-2 5 20 12 39 22 55-6 3-12 8-18 14-16 16-22 35-14 43 8 8 27 1 43-15 5-4 9-9 11-14 22 21 49 34 79 34 30 0 58-13 80-35 3 5 7 10 12 15 16 16 35 23 43 15 8-8 2-27-14-43-7-7-13-11-20-14 10-17 18-36 22-56 4 1 8 2 12 3 26 6 48 1 49-10 2-11-18-25-44-30z"></path>
</svg>
