<?xml version="1.0" standalone="no"?>
<!DOCTYPE svg PUBLIC "-//W3C//DTD SVG 1.1//EN" "http://www.w3.org/Graphics/SVG/1.1/DTD/svg11.dtd">
<svg width="512" height="512" viewBox="0 0 512 512">
    <path d="m352 256l-32 0 0 64 32 0z m-64 0l-32 0 0 64 32 0z m64-96l-32 0 0 64 32 0z m64 96l-32 0 0 64 32 0z m-128 96l-32 0 0 64 32 0z m96-352l-32 0 0 64 32 0z m-256 0l-32 0 0 64 32 0z m288 160l-32 0 0 64 32 0z m-128 0l-32 0 0 64 32 0z m-128 192l-32 0 0 64 32 0z m-64-96l-32 0 0 64 32 0z m64 0l-32 0 0 64 32 0z m256-224l0 64-96 0 0-64-160 0 0 64-96 0 0-64-64 0 0 448 480 0 0-448z m32 416l-416 0 0-320 416 0z m-352-96l-32 0 0 64 32 0z m128-192l-32 0 0 64 32 0z m0 192l-32 0 0 64 32 0z m-64-192l-32 0 0 64 32 0z m64 96l-32 0 0 64 32 0z m128 96l-32 0 0 64 32 0z"></path>
</svg>
