<?xml version="1.0" standalone="no"?>
<!DOCTYPE svg PUBLIC "-//W3C//DTD SVG 1.1//EN" "http://www.w3.org/Graphics/SVG/1.1/DTD/svg11.dtd">
<svg width="512" height="512" viewBox="0 0 512 512">
    <path d="m288 58c58 0 107 21 148 62c40 41 61 90 61 148c0 58-21 108-61 149c-41 41-90 61-148 61c-49 0-92-15-129-45c0 0 36-38 36-38c28 21 59 31 93 31c43 0 80-15 110-46c31-31 46-68 46-112c0-43-15-81-46-111c-30-31-67-46-110-46c-43 0-79 14-110 44c-31 30-46 66-47 108c0 0 73 0 73 0c0 0-94 105-94 105c0 0-95-105-95-105c0 0 64 0 64 0c1-56 21-105 62-145c41-40 90-60 147-60"></path>
</svg>
