<?xml version="1.0" standalone="no"?>
<!DOCTYPE svg PUBLIC "-//W3C//DTD SVG 1.1//EN" "http://www.w3.org/Graphics/SVG/1.1/DTD/svg11.dtd">
<svg width="512" height="512" viewBox="0 0 512 512">
    <path d="m416 160c-4 0-9 1-13 1-24-57-81-97-147-97-66 0-123 40-147 97-4 0-9-1-13-1-53 0-96 43-96 96 0 53 43 96 96 96 10 0 20-2 29-5 17 19 41 31 67 35l0-32c-25-6-46-22-56-44-11 9-25 14-40 14-35 0-64-29-64-64 0-35 29-64 64-64 13 0 24 4 34 10 11-60 63-106 126-106 63 0 115 46 125 106 10-6 22-10 35-10 35 0 64 29 64 64 0 35-29 64-64 64-5 0-10-1-15-2-14 21-38 34-65 34-6 0-11-1-16-2l0 32c5 1 11 2 16 2 31 0 58-12 78-32 1 0 1 0 2 0 53 0 96-43 96-96 0-53-43-96-96-96z m-128 96l-64 0 0 160-64 0 96 96 96-96-64 0z"></path>
</svg>
