<?xml version="1.0" standalone="no"?>
<!DOCTYPE svg PUBLIC "-//W3C//DTD SVG 1.1//EN" "http://www.w3.org/Graphics/SVG/1.1/DTD/svg11.dtd">
<svg width="512" height="512" viewBox="0 0 512 512">
    <path d="m351 285c52-52 52-137 0-190c-53-52-137-52-190 0c-52 53-52 138 0 190c20 19 44 32 69 37l0 41l-27 0c-2 0-4 1-6 2c-1 2-2 4-2 6l0 35c0 5 3 8 8 8c0 0 0 0 0 0l27 0l0 34c0 4 3 7 6 8l0 0l2 0c0 0 0 0 0 0c0 0 0 0 0 0l35 0c0 0 0 0 0 0c4 0 8-4 8-8l0 0l0-34l28 0c0 0 0 0 0 0c5 0 8-3 8-8l0-35c0-2-1-4-2-6c-2-1-4-2-6-2l-28 0l0-41c26-5 50-17 70-37z m-95-12c-46 0-83-37-83-83c0-46 37-83 83-83c46 0 83 37 83 83c0 46-37 83-83 83z"></path>
</svg>
