<?xml version="1.0" encoding="utf-8"?>
<!DOCTYPE svg PUBLIC "-//W3C//DTD SVG 1.1//EN" "http://www.w3.org/Graphics/SVG/1.1/DTD/svg11.dtd">
<svg width="512" height="512" viewBox="0 0 512 512">
    <path d="m256 175c-45 0-81 36-81 81 0 45 36 81 81 81 45 0 81-36 81-81 0-45-36-81-81-81z m162 128l-14 35 26 51 3 7-36 36-59-28-35 14-18 55-2 7-51 0-22-62-36-14-51 26-7 3-36-36 28-59-14-35-55-18-7-2 0-51 62-22 14-36-26-51-3-7 36-36 59 28 35-14 18-55 2-7 51 0 22 62 36 14 51-26 7-3 36 36-28 59 14 35 55 18 7 2 0 51z"></path>
</svg>
