<?xml version="1.0" standalone="no"?>
<!DOCTYPE svg PUBLIC "-//W3C//DTD SVG 1.1//EN" "http://www.w3.org/Graphics/SVG/1.1/DTD/svg11.dtd">
<svg width="512" height="512" viewBox="0 0 512 512">
    <path d="m256 480l160 0 0-160-160 0z m-192 0l160 0 0-160-160 0z m192-292c16-2 33-4 44-5 42-4 79-42 84-84 5-42-26-72-67-67-33 3-63 27-77 57-14-30-44-54-77-58-41-4-72 26-67 68 5 42 43 80 84 84 11 1 28 3 44 5 0 2 0 4 0 4l32 0c0 0 0-2 0-4z m54-118c22-2 39 14 36 37-2 22-23 43-45 45-23 3-39-13-37-36 3-23 23-43 46-46z m-131 82c-22-2-43-23-45-45-3-23 14-39 36-37 23 3 43 23 46 46 2 23-14 39-37 36z m77 40l0 96 192 0 0-96z m-224 96l192 0 0-96-192 0z"></path>
</svg>
