<?xml version="1.0" standalone="no"?>
<!DOCTYPE svg PUBLIC "-//W3C//DTD SVG 1.1//EN" "http://www.w3.org/Graphics/SVG/1.1/DTD/svg11.dtd">
<svg width="512" height="512" viewBox="0 0 512 512">
    <path d="m384 224c-24 0-44 13-55 32-3 0-6 0-9 0-66 0-128-50-150-112 13-11 22-29 22-48 0-35-29-64-64-64-35 0-64 29-64 64 0 24 13 44 32 55l0 210c-19 11-32 31-32 55 0 35 29 64 64 64 35 0 64-29 64-64 0-24-13-44-32-55l0-115c42 44 100 74 160 74 3 0 6 0 9 0 11 19 31 32 55 32 35 0 64-29 64-64 0-35-29-64-64-64z m-256 224c-18 0-32-14-32-32 0-18 14-32 32-32 18 0 32 14 32 32 0 18-14 32-32 32z m0-320c-18 0-32-14-32-32 0-18 14-32 32-32 18 0 32 14 32 32 0 18-14 32-32 32z m256 192c-18 0-32-14-32-32 0-18 14-32 32-32 18 0 32 14 32 32 0 18-14 32-32 32z"></path>
</svg>
