<?xml version="1.0" standalone="no"?>
<!DOCTYPE svg PUBLIC "-//W3C//DTD SVG 1.1//EN" "http://www.w3.org/Graphics/SVG/1.1/DTD/svg11.dtd">
<svg width="512" height="512" viewBox="0 0 512 512">
    <path d="m352 96c-35 0-64 29-64 64 0 24 13 44 32 55l0 9c0 32-32 64-64 64-26 0-47 6-64 15l0-152c19-11 32-31 32-55 0-35-28-64-64-64-35 0-64 29-64 64 0 24 13 44 32 55l0 210c-19 11-32 31-32 55 0 35 29 64 64 64 36 0 64-29 64-64 0-17-6-32-17-44 10-11 25-20 49-20 64 0 128-64 128-128l0-9c19-11 32-32 32-55 0-36-28-64-64-64z m-192-32c18 0 32 15 32 32 0 18-14 32-32 32-17 0-32-14-32-32 0-17 15-32 32-32z m0 384c-17 0-32-14-32-32 0-17 15-32 32-32 18 0 32 15 32 32 0 18-14 32-32 32z m192-256c-17 0-32-14-32-32 0-17 15-32 32-32 18 0 32 15 32 32 0 18-14 32-32 32z"></path>
</svg>
