<?xml version="1.0" standalone="no"?>
<!DOCTYPE svg PUBLIC "-//W3C//DTD SVG 1.1//EN" "http://www.w3.org/Graphics/SVG/1.1/DTD/svg11.dtd">
<svg width="512" height="512" viewBox="0 0 512 512">
    <path d="m448 361c0 0 0-153 0-201 0-48-48-96-96-96-32 0-32 0-32 0l0-64-96 96 96 96 0-64c0 0 16 0 32 0 16 0 32 16 32 32 0 16 0 201 0 201-19 11-32 32-32 55 0 36 29 64 64 64 36 0 64-28 64-64 0-23-13-44-32-55z m-32 87c-17 0-32-14-32-32 0-17 15-32 32-32 18 0 32 15 32 32 0 18-14 32-32 32z m-224-64c0 0-16 0-32 0-16 0-32-16-32-32 0-16 0-201 0-201 19-11 32-31 32-55 0-35-28-64-64-64-35 0-64 29-64 64 0 24 13 44 32 55 0 0 0 153 0 201 0 48 48 96 96 96 32 0 32 0 32 0l0 64 96-96-96-96z m-96-256c-17 0-32-14-32-32 0-17 15-32 32-32 18 0 32 15 32 32 0 18-14 32-32 32z"></path>
</svg>
