<?xml version="1.0" standalone="no"?>
<!DOCTYPE svg PUBLIC "-//W3C//DTD SVG 1.1//EN" "http://www.w3.org/Graphics/SVG/1.1/DTD/svg11.dtd">
<svg width="512" height="512" viewBox="0 0 512 512">
    <path d="m256 64c-106 0-192 86-192 192 0 106 86 192 192 192 13 0 26-1 38-4-5-2-6-20-1-30 6-11 23-40 6-49-17-10-12-14-23-25-10-11-6-13-6-16-3-9 10-24 10-26 1-1 1-7 1-8-1-2-8-7-10-7-2 0-3 3-5 3-3 1-14-7-17-8-2-2-3-7-7-10-3-4-4-1-9-3-5-2-22-8-35-13-13-6-14-13-14-18 0-6-8-13-12-18-3-6-4-13-5-12-2 2 7 22 5 22-1 1-4-5-8-10-3-5 4-2-8-26-12-24 4-36 5-48 1-12 10 5 5-3-5-8 0-25-3-31-4-6-25 7-25 7 0-6 18-16 31-25 14-9 22-2 32 1 11 4 11 3 8-1-4-3 1-5 10-3 8 1 10 11 23 10 12-1 1 2 3 5 1 4-2 3-11 9-8 6 1 6 15 16 15 11 10-7 9-15-2-8 11-1 11-1 9 6 7 0 13 2 7 2 25 17 25 17-22 12-8 14-5 16 4 3-7 9-7 9-5-5-6 0-9 1-3 2 0 6 0 6-16 3-12 19-12 23 0 4-10 10-12 16-3 5 6 18 2 18-5 1-10-18-36-11-8 2-26 11-17 30 10 18 25-5 31-3 5 3-2 15-1 15 1 0 15 0 16 16 1 16 21 15 25 15 4 1 19-11 21-12 2-1 10-8 28 3 18 10 27 9 33 13 7 4 2 13 8 16 6 2 29-1 35 8 6 10-24 58-33 63-10 5-14 17-23 25-10 8-23 17-35 25-11 6-13 18-18 21 86-19 150-95 150-187 0-106-86-192-192-192z m45 180c-3 1-8 6-21-2-14-8-23-6-24-8 0 0-1-3 5-3 12-2 27 11 30 11 3 0 5-4 11-2 6 2 2 3-1 4z m-63-161c-1-1 1-2 3-4 1-1 0-3 1-4 3-3 17-6 14 1-3 8-16 9-18 7z m34 25c-5-1-16-2-14-4 8-8-3-10-10-11-6 0-9-4-6-4 4-1 17 0 19 2 3 2 15 7 15 10 1 4 0 7-4 7z m40-2c-3 3-22-11-26-14-16-13-24-9-27-11-4-2-2-5 3-10 5-4 19 2 27 3 8 1 18 7 18 15 0 7 9 14 5 17z"></path>
</svg>
