<?xml version="1.0" standalone="no"?>
<!DOCTYPE svg PUBLIC "-//W3C//DTD SVG 1.1//EN" "http://www.w3.org/Graphics/SVG/1.1/DTD/svg11.dtd">
<svg width="512" height="512" viewBox="0 0 512 512">
    <path d="m347 384l0 37c0 5-1 9-5 12c-4 4-8 6-13 6l-146 0c-5 0-9-2-13-6c-4-3-5-7-5-12l0-37c0-5 1-9 5-13c4-3 8-5 13-5l18 0l0-110l-18 0c-5 0-9-2-13-5c-4-4-5-8-5-13l0-37c0-5 1-9 5-13c4-3 8-5 13-5l110 0c5 0 9 2 12 5c4 4 6 8 6 13l0 165l18 0c5 0 9 2 13 5c4 4 5 8 5 13z m-36-329l0 55c0 5-2 9-6 13c-3 3-7 5-12 5l-74 0c-5 0-9-2-12-5c-4-4-6-8-6-13l0-55c0-5 2-9 6-13c3-4 7-5 12-5l74 0c5 0 9 1 12 5c4 4 6 8 6 13z"></path>
</svg>
