<?xml version="1.0" standalone="no"?>
<!DOCTYPE svg PUBLIC "-//W3C//DTD SVG 1.1//EN" "http://www.w3.org/Graphics/SVG/1.1/DTD/svg11.dtd">
<svg width="512" height="512" viewBox="0 0 512 512">
    <path d="m256 32c-88 0-160 72-160 160 0 52 25 99 64 128l0 96c0 18 14 32 32 32 0 18 14 32 32 32l64 0c18 0 32-14 32-32 18 0 32-14 32-32l0-96c39-29 64-76 64-128 0-88-72-160-160-160z m64 368c0 9-7 16-16 16l-96 0c-9 0-16-7-16-16l0-16 128 0z m32-123c-17 16-32 21-32 62l0 13-32 0 0-64 64-64 0-32-32-32-32 32-32-32-32 32-32-32-32 32 0 32 64 64 0 64-32 0 0-13c0-41-15-46-32-62-20-23-32-53-32-85 0-71 57-128 128-128 71 0 128 57 128 128 0 32-12 62-32 85z m-96 11l-64-64 0-32 32 32 32-32 32 32 32-32 0 32z"></path>
</svg>
