<?xml version="1.0" standalone="no"?>
<!DOCTYPE svg PUBLIC "-//W3C//DTD SVG 1.1//EN" "http://www.w3.org/Graphics/SVG/1.1/DTD/svg11.dtd">
<svg width="512" height="512" viewBox="0 0 512 512">
    <path d="m427 94c0 0 0 0 0 0c0-5-3-8-8-8l0 0l-106 0l0 0c-5 0-8 3-8 8l0 35c0 4 3 8 8 8l0 0l26 0l-45 45c-21-15-47-24-75-24c-74 0-134 60-134 134c0 74 60 134 134 134c74 0 134-60 134-134c0-27-8-53-23-74l46-46l0 28c0 5 4 8 8 8l35 0c5 0 8-3 8-8c0 0 0 0 0 0l0-106z m-208 281c-46 0-83-37-83-83c0-46 37-83 83-83c46 0 83 37 83 83c0 46-37 83-83 83z"></path>
</svg>
