<?xml version="1.0" standalone="no"?>
<!DOCTYPE svg PUBLIC "-//W3C//DTD SVG 1.1//EN" "http://www.w3.org/Graphics/SVG/1.1/DTD/svg11.dtd">
<svg width="512" height="512" viewBox="0 0 512 512">
    <path d="m281 50c-114-14-217 67-231 181-14 114 67 217 181 231 35 5 72 0 106-15l0 0c13-5 18-19 13-31-5-12-19-18-31-13l0 0c-27 11-55 15-82 12-88-11-151-91-140-178 11-88 91-151 179-140 87 11 150 91 139 179-2 17-11 27-31 27-21 0-32-23-32-40l0-63c0-13-11-24-24-24-5 0-9 1-13 4-13-10-29-17-47-19-53-7-101 31-107 83-7 53 31 101 83 107 29 4 58-7 79-26 13 14 30 24 50 26 44 5 84-26 89-70 14-114-67-217-181-231z m23 212c-4 26-28 45-54 42-26-4-45-28-42-54 4-26 28-45 54-42 26 4 45 28 42 54z"></path>
</svg>
