<?xml version="1.0" standalone="no"?>
<!DOCTYPE svg PUBLIC "-//W3C//DTD SVG 1.1//EN" "http://www.w3.org/Graphics/SVG/1.1/DTD/svg11.dtd">
<svg width="512" height="512" viewBox="0 0 512 512">
    <path d="m251 294l-123-38c0 0 0 48 0 80 0 32 58 48 128 48 71 0 128-16 128-48 0-32 0-80 0-80l-122 38c-4 1-8 1-12 0z m9-204c-2-1-5-1-7 0l-244 76c-11 3-11 18 0 21l55 18 0 56c-9 6-16 16-16 28 0 6 2 11 5 16-3 4-5 10-5 16l0 82c0 18 64 18 64 0l0-82c0-6-1-12-4-16 2-5 4-10 4-16 0-12-6-22-16-28l0-46 157 49c2 0 4 0 6 0l245-76c10-4 10-18 0-22z m-3 102c-18 0-32-7-32-16 0-9 14-16 32-16 17 0 32 7 32 16 0 9-15 16-32 16z"></path>
</svg>
