<?xml version="1.0" standalone="no"?>
<!DOCTYPE svg PUBLIC "-//W3C//DTD SVG 1.1//EN" "http://www.w3.org/Graphics/SVG/1.1/DTD/svg11.dtd">
<svg width="512" height="512" viewBox="0 0 512 512">
    <path d="m416 192l-320 0c-35 0-64 29-64 64l0 32c0 24 13 44 32 55l0 105 128 0 0 64 128 0 0-64 128 0 0-105c19-11 32-31 32-55l0-32c0-35-29-64-64-64z m-256 224l-64 0 0-128-32 0 0-32c0-18 14-32 32-32l41 0c-6 9-9 20-9 32l0 64c0 24 13 44 32 55z m160-64l0-64-32 0 0 192-64 0 0-192-32 0 0 64c-18 0-32-14-32-32l0-64c0-18 14-32 32-32l128 0c18 0 32 14 32 32l0 64c0 18-14 32-32 32z m128-64l-32 0 0 128-64 0 0-41c19-11 32-31 32-55l0-64c0-12-3-23-9-32l41 0c18 0 32 14 32 32z m-264-129c17 20 43 33 72 33 29 0 55-13 72-33 11 19 32 33 56 33 35 0 64-29 64-64 0-35-29-64-64-64-13 0-25 4-35 10-10-42-47-74-93-74-46 0-83 32-93 74-10-6-22-10-35-10-35 0-64 29-64 64 0 35 29 64 64 64 24 0 45-14 56-33z m200-63c18 0 32 14 32 32 0 18-14 32-32 32-18 0-32-14-32-32 0-18 14-32 32-32z m-128-64c35 0 64 29 64 64 0 35-29 64-64 64-35 0-64-29-64-64 0-35 29-64 64-64z m-128 128c-18 0-32-14-32-32 0-18 14-32 32-32 18 0 32 14 32 32 0 18-14 32-32 32z"></path>
</svg>
