<?xml version="1.0" standalone="no"?>
<!DOCTYPE svg PUBLIC "-//W3C//DTD SVG 1.1//EN" "http://www.w3.org/Graphics/SVG/1.1/DTD/svg11.dtd">
<svg width="512" height="512" viewBox="0 0 512 512">
    <path d="m352 96c0-53-43-96-96-96-53 0-96 43-96 96 0 53 43 96 96 96 53 0 96-43 96-96z m-96 64c-35 0-64-29-64-64 0-35 29-64 64-64 35 0 64 29 64 64 0 35-29 64-64 64z m64 32l-128 0c-35 0-64 29-64 64l0 64c0 35 29 64 64 64l0 128 128 0 0-128c35 0 64-29 64-64l0-64c0-35-29-64-64-64z m32 128c0 18-14 32-32 32l0-64-32 0 0 192-64 0 0-192-32 0 0 64c-18 0-32-14-32-32l0-64c0-18 14-32 32-32l128 0c18 0 32 14 32 32z"></path>
</svg>
