<?xml version="1.0" standalone="no"?>
<!DOCTYPE svg PUBLIC "-//W3C//DTD SVG 1.1//EN" "http://www.w3.org/Graphics/SVG/1.1/DTD/svg11.dtd">
<svg width="512" height="512" viewBox="0 0 512 512">
    <path d="m378 288c-7-5-14-9-22-10-4-1-9-2-14-1-4 0-8 1-12 1-4 1-7 2-10 4-9 4-17 9-23 15-6 6-11 14-15 23-2 3-3 6-4 9 0 5-1 9-1 13-1 5 0 10 1 14 1 8 5 15 10 22 2 3 4 5 6 7 10 10 23 16 38 17 4 1 9 1 13 3 2 0 4 2 6 3 3 3 4 8 1 14-1 3-4 6-6 9l-2 2c-2 2-3 3-3 3-2 2-3 3-5 5l-1 1c-6 5-11 11-16 16-11 11-23 23-34 34-4 4-8 8-12 11-1 2-3 4-5 5-1 0-2 1-3 1-9 5-20 3-29-6-3-2-5-5-8-8-15-15-30-30-45-45-5-4-9-8-13-13-3-3-7-6-10-8-3-2-6-4-9-5-10-4-21-1-27 7-2 2-4 5-5 8-2 5-2 10-3 15-2 18-13 34-28 41-4 2-8 3-12 4-4 1-8 1-12 0-13 0-24-6-34-16-1-1-1-1-1-1-10-10-16-21-16-34-1-4-1-8 0-12 1-4 2-8 4-12 7-15 23-26 41-28 5-1 10-1 15-3 3-1 6-3 9-5 7-7 10-17 6-26-1-4-3-7-5-10-2-3-5-7-8-10-5-4-9-8-13-12-14-14-27-27-40-41l-5-5c-3-3-6-5-8-8-9-9-11-20-6-29 0-1 1-2 1-3 1-2 3-4 5-5 3-4 7-8 11-12 11-11 23-22 34-34 5-5 11-10 16-16l1-1c2-2 3-3 5-5 0 0 1-1 3-3l2-2c3-2 6-5 9-6 6-3 11-2 14 1 1 2 3 4 3 6 2 4 2 9 3 13 1 15 7 28 17 38 2 2 4 4 7 6 7 5 14 9 22 10 4 1 9 2 14 1 4 0 8-1 13-1 3-1 6-2 9-4 9-4 17-9 23-15 6-6 11-14 15-23 2-3 3-6 4-9 0-5 1-9 1-13 1-5 0-10-1-14-1-8-5-15-10-22-2-3-4-5-6-7-10-10-23-16-38-17-4-1-9-1-13-3-2 0-4-2-6-3-3-3-4-8-1-14 1-3 4-6 6-9l2-2c2-2 3-3 3-3 2-2 3-3 5-5l1-1c6-5 11-11 16-16 12-11 23-23 34-34 4-4 8-8 12-11 1-2 3-4 5-5 1 0 2-1 3-1 9-5 20-3 29 6 3 2 5 5 8 8 15 15 30 30 45 45 5 4 9 8 13 13 3 3 7 6 10 8 3 2 6 4 9 5 10 4 21 1 27-7 2-2 4-5 5-8 2-5 2-10 3-15 2-18 13-34 28-41 4-2 8-3 12-4 4-1 8-1 12 0 13 0 24 6 34 16 1 1 1 1 1 1 10 10 16 21 16 34 1 4 1 8 0 12-1 4-2 8-4 12-7 15-23 26-41 28-5 1-10 1-15 3-3 1-6 3-9 5-7 7-10 17-6 26 1 4 3 7 5 10 2 3 5 7 8 10 5 4 9 8 13 13 15 15 30 30 46 45 2 3 5 5 7 8 9 9 11 20 6 29 0 1-1 2-1 3-1 2-3 4-5 5-3 4-7 8-11 12-11 11-23 22-34 34-5 5-11 10-16 16l-1 1c-2 2-3 3-5 5 0 0-1 1-3 3l-2 2c-3 2-6 5-9 6-6 3-11 2-14-1-1-2-3-4-3-6-2-4-2-9-3-13-1-15-7-28-17-38-2-2-4-4-7-6z"></path>
</svg>
