<?xml version="1.0" standalone="no"?>
<!DOCTYPE svg PUBLIC "-//W3C//DTD SVG 1.1//EN" "http://www.w3.org/Graphics/SVG/1.1/DTD/svg11.dtd">
<svg width="512" height="512" viewBox="0 0 512 512">
    <path d="m224 384l64 0 0-64-64 0z m32-256c-48 0-96 48-96 96l64 0c0-16 16-32 32-32 16 0 32 16 32 32 0 32-64 32-64 64l64 0c32-11 64-32 64-80 0-48-48-80-96-80z m0-128c-141 0-256 115-256 256 0 142 115 256 256 256 142 0 256-114 256-256 0-141-114-256-256-256z m0 448c-106 0-192-86-192-192 0-106 86-192 192-192 106 0 192 86 192 192 0 106-86 192-192 192z"></path>
</svg>
