<?xml version="1.0" standalone="no"?>
<!DOCTYPE svg PUBLIC "-//W3C//DTD SVG 1.1//EN" "http://www.w3.org/Graphics/SVG/1.1/DTD/svg11.dtd">
<svg width="512" height="512" viewBox="0 0 512 512">
    <path d="m153 195c8-8 8-21 0-29-10-11-15-24-15-38 0-14 5-28 15-38 8-8 8-22 0-30-4-4-9-6-14-6-5 0-10 2-14 6-18 19-28 43-28 68 0 24 10 49 28 67 8 9 20 9 28 0z m-78-178c-5-5-10-7-15-7-5 0-11 2-15 7-30 30-45 71-45 111 0 40 15 80 45 111 8 8 21 8 30 0 8-8 8-22 0-30-22-23-33-52-33-81 0-30 11-59 33-81 8-9 8-22 0-30z m182 163c28 0 51-23 51-52 0-29-23-52-51-52-29 0-52 23-52 52 0 29 23 52 52 52z m210-163c-8-8-21-8-29 0-9 8-9 22 0 30 21 22 32 52 32 81 0 30-11 59-32 81-9 9-9 22 0 30 4 4 9 7 14 7 5 0 11-3 15-7 30-30 45-71 45-111 0-40-15-80-45-111z m-210 204c-14 0-27-3-39-9l-100 268 47 0 28-32 127 0 27 32 48 0-100-268c-12 6-25 9-38 9z m-1 16l33 115-64 0z m-63 179l32-32 64 0 31 32z m166-355c-8 8-8 21 0 29 10 11 15 24 15 38 0 14-5 28-15 38-8 8-8 22 0 30 4 4 9 6 14 6 5 0 10-2 14-6 18-19 28-43 28-68 0-24-10-49-28-67-8-9-20-9-28 0z"></path>
</svg>
