<?xml version="1.0" standalone="no"?>
<!DOCTYPE svg PUBLIC "-//W3C//DTD SVG 1.1//EN" "http://www.w3.org/Graphics/SVG/1.1/DTD/svg11.dtd">
<svg width="512" height="512" viewBox="0 0 512 512">
    <path d="m433 111c0-3-2-6-4-7c-3-2-6-1-8 0l-31 22l-2 2c-33-33-78-53-128-53c-100 0-181 81-181 181c0 100 81 181 181 181c60 0 117-29 150-80c2-2 2-4 2-6c-1-3-2-5-4-6l-45-32c-5-3-11-1-14 3c-20 30-53 47-89 47c-59 0-107-48-107-107c0-59 48-107 107-107c25 0 48 8 66 23l-5 3l-30 22c-3 2-4 5-3 8c0 3 2 5 5 6l130 44c2 1 5 1 7-1c2-1 3-4 3-6z"></path>
</svg>
