<?xml version="1.0" standalone="no"?>
<!DOCTYPE svg PUBLIC "-//W3C//DTD SVG 1.1//EN" "http://www.w3.org/Graphics/SVG/1.1/DTD/svg11.dtd">
<svg width="512" height="512" viewBox="0 0 512 512">
    <path d="m448 64c0-35-28-64-64-64-35 0-64 29-64 64 0 24 13 45 32 56l0 53-96 106-96-106 0-53c19-11 32-32 32-56 0-35-28-64-64-64-35 0-64 29-64 64 0 24 13 45 32 56l0 78 128 141 0 54c-19 11-32 32-32 56 0 35 29 64 64 64 36 0 64-29 64-64 0-24-13-45-32-56l0-54 128-141 0-78c19-11 32-32 32-56z m-320-31c17 0 31 14 31 31 0 17-14 31-31 31-17 0-31-14-31-31 0-17 14-31 31-31z m128 445c-17 0-31-14-31-31 0-17 14-31 31-31 17 0 31 14 31 31 0 17-14 31-31 31z m128-445c17 0 31 14 31 31 0 17-14 31-31 31-17 0-31-14-31-31 0-17 14-31 31-31z"></path>
</svg>
