<?xml version="1.0" standalone="no"?>
<!DOCTYPE svg PUBLIC "-//W3C//DTD SVG 1.1//EN" "http://www.w3.org/Graphics/SVG/1.1/DTD/svg11.dtd">
<svg width="512" height="512" viewBox="0 0 512 512">
    <path d="m472 112c0-5-4-9-9-9c0 0 0 0 0 0l0 0l-235 0l0 0c-5 0-9 4-9 9l0 0l0 0c0 0 0 0 0 0c0 0 0 0 0 0l0 33c0 0 0 0 0 0c0 5 4 9 9 9l235 0c0 0 0 0 0 0c5 0 9-4 9-9c0 0 0 0 0 0z m0 77c0-5-4-9-9-9c0 0 0 0 0 0l0 0l-235 0l0 0c-5 0-9 4-9 9l0 0l0 0c0 0 0 0 0 0l0 32c0 0 0 0 0 0c0 5 4 10 9 10l235 0l0 0c0 0 0 0 0 0c5 0 9-5 9-10z m-304-77c0-5-4-9-9-9c-1 0-1 0-1 0l-108 0c0 0 0 0-1 0c-5 0-9 4-9 9l0 109c0 5 4 10 9 10l110 0c5 0 9-5 9-10z m304 179c0-5-4-9-9-9c0 0 0 0 0 0l0-1l-235 0l0 1c-5 0-9 4-9 9l0 0l0 0c0 0 0 0 0 0c0 0 0 0 0 0l0 32c0 0 0 0 0 0c0 5 4 9 9 9l235 0l0 0c0 0 0 0 0 0c5 0 9-4 9-9z m0 76c0-5-4-9-9-9c0 0 0 0 0 0l0 0l-235 0l0 0c-5 0-9 4-9 9l0 0l0 0c0 0 0 0 0 0c0 0 0 0 0 0l0 32c0 0 0 1 0 1c0 5 4 9 9 9l235 0l0 0c0 0 0 0 0 0c5 0 9-4 9-9c0 0 0 0 0 0z m-304-76c0-5-4-10-9-10c-1 0-1 1-1 1l-108 0c0 0 0-1-1-1c-5 0-9 5-9 10l0 109c0 5 4 9 9 9c0 0 0 0 0 0l110 0c5 0 9-4 9-9z"></path>
</svg>
