<?xml version="1.0" standalone="no"?>
<!DOCTYPE svg PUBLIC "-//W3C//DTD SVG 1.1//EN" "http://www.w3.org/Graphics/SVG/1.1/DTD/svg11.dtd">
<svg width="512" height="512" viewBox="0 0 512 512">
    <path d="m358 62c-36 21-74 48-109 83-22 23-40 45-55 65l-89 17-105 105 93 2 66-65c-23 48-25 80-25 80l29 29c0 0 33-3 82-27l-67 68 2 93 105-105 17-89c21-15 42-33 65-55 35-35 62-73 83-109-23-5-44-15-61-31-16-17-26-38-31-61z m35-19c3 23 10 41 22 53 13 13 31 20 54 23 33-67 43-119 43-119 0 0-52 10-119 43z"></path>
</svg>
