<?xml version="1.0" standalone="no"?>
<!DOCTYPE svg PUBLIC "-//W3C//DTD SVG 1.1//EN" "http://www.w3.org/Graphics/SVG/1.1/DTD/svg11.dtd">
<svg width="512" height="512" viewBox="0 0 512 512">
    <path d="m128 320c-35 0-64 29-64 64 0 35 29 64 64 64 35 0 64-29 64-64 0-35-29-64-64-64z m0-128c0 0-32 1-32 32 0 31 32 32 32 32 71 0 128 57 128 128 0 0 0 32 32 32 32 0 32-32 32-32 0-106-86-192-192-192z m0-128c0 0-32 0-32 32 0 32 32 32 32 32 141 0 256 115 256 256 0 0 0 32 32 32 32 0 32-32 32-32 0-177-143-320-320-320z"></path>
</svg>
