<?xml version="1.0" standalone="no"?>
<!DOCTYPE svg PUBLIC "-//W3C//DTD SVG 1.1//EN" "http://www.w3.org/Graphics/SVG/1.1/DTD/svg11.dtd">
<svg width="512" height="512" viewBox="0 0 512 512">
    <path d="m359 117l50 0l-20-63l-4-13c0-3 0-5 0-6l-2 0l0 6c0 0-1 2-1 5c-1 3-2 6-3 8z m-130 294c0 3-1 5-3 7l-91 91c-2 2-5 3-7 3c-2 0-4-1-7-3l-91-91c-3-3-4-6-2-10c2-4 4-6 9-6l54 0l0-393c0-3 1-5 3-6c2-2 4-3 7-3l54 0c3 0 5 1 7 3c2 1 3 3 3 6l0 393l54 0c3 0 5 1 7 3c2 2 3 4 3 6z m238 34l0 67l-166 0l0-26l105-151c2-3 4-6 6-8l3-2l0-1c0 0-1 0-2 0c-1 0-1 0-2 0c-2 1-5 1-8 1l-67 0l0 33l-34 0l0-65l162 0l0 25l-105 151c-2 2-4 4-6 8l-4 3l0 1l4-1c2 0 5-1 9-1l71 0l0-34z m26-256l0 30l-82 0l0-30l21 0l-13-41l-70 0l-13 41l21 0l0 30l-82 0l0-30l20 0l66-189l46 0l66 189z"></path>
</svg>
