<?xml version="1.0" standalone="no"?>
<!DOCTYPE svg PUBLIC "-//W3C//DTD SVG 1.1//EN" "http://www.w3.org/Graphics/SVG/1.1/DTD/svg11.dtd">
<svg width="512" height="512" viewBox="0 0 512 512">
    <path d="m119 137c0-10-3-18-10-25c-6-6-14-10-24-10c-9 0-17 4-24 10c-6 7-10 15-10 25c0 9 4 17 10 24c7 6 15 10 24 10c10 0 18-4 24-10c7-7 10-15 10-24z m285 153c0 10-3 18-10 24l-131 131c-7 7-15 10-24 10c-9 0-17-3-24-10l-191-191c-6-6-12-15-17-27c-5-11-7-21-7-31l0-111c0-9 3-17 10-24c7-6 15-10 24-10l111 0c9 0 20 3 31 7c12 5 21 11 27 17l191 191c7 7 10 15 10 24z m102 0c0 10-3 18-9 24l-131 131c-7 7-15 10-25 10c-6 0-11-1-15-4c-4-2-9-6-15-12l126-125c6-6 10-14 10-24c0-9-4-17-10-24l-191-191c-7-6-16-12-27-17c-11-4-22-7-31-7l59 0c10 0 20 3 32 7c11 5 20 11 27 17l191 191c6 7 9 15 9 24z"></path>
</svg>
