<?xml version="1.0" standalone="no"?>
<!DOCTYPE svg PUBLIC "-//W3C//DTD SVG 1.1//EN" "http://www.w3.org/Graphics/SVG/1.1/DTD/svg11.dtd">
<svg width="512" height="512" viewBox="0 0 512 512">
    <path d="m155 90l-54 0c-6 0-11 5-11 11l0 54c0 6 5 12 11 12l54 0c6 0 12-6 12-12l0-54c0-6-6-11-12-11z m128 0l-54 0c-6 0-11 5-11 11l0 54c0 6 5 12 11 12l54 0c6 0 11-6 11-12l0-54c0-6-5-11-11-11z m139 11c0-6-5-11-11-11l-54 0c-6 0-12 5-12 11l0 54c0 0 0 0 0 0c0 6 6 12 12 12l54 0c6 0 11-6 11-12l0-54z m-267 117l-54 0c-6 0-11 5-11 11l0 54c0 6 5 11 11 11l54 0c6 0 12-5 12-11l0-54c0-6-6-11-12-11z m128 0l-54 0c-6 0-11 5-11 11l0 54c0 6 5 11 11 11l54 0c6 0 11-5 11-11l0-54c0-6-5-11-11-11z m128 0l-54 0c-6 0-12 5-12 11l0 54c0 0 0 0 0 0c0 6 6 11 12 11l54 0c6 0 11-5 11-11l0-54c0-6-5-11-11-11z m-256 127l-54 0c-6 0-11 6-11 12l0 54c0 6 5 11 11 11l54 0c6 0 12-5 12-11l0-54c0-6-6-12-12-12z m128 0l-54 0c-6 0-11 6-11 12l0 54c0 6 5 11 11 11l54 0c6 0 11-5 11-11l0-54c0-6-5-12-11-12z m128 0l-54 0c-6 0-12 6-12 12l0 54c0 6 6 11 12 11l54 0c6 0 11-5 11-11l0-54c0-6-5-12-11-12z"></path>
</svg>
